<mxfile host="app.diagrams.net" modified="2020-10-13T07:01:35.434Z" agent="5.0 (Windows NT 10.0; Win64; x64) AppleWebKit/537.36 (KHTML, like Gecko) Chrome/86.0.4240.75 Safari/537.36 Edg/86.0.622.38" etag="6n-SbwRnhFwS7THQ_0ON" version="13.7.9" type="github">
  <diagram id="C5RBs43oDa-KdzZeNtuy" name="Page-1">
    <mxGraphModel dx="2031" dy="1134" grid="1" gridSize="10" guides="1" tooltips="1" connect="1" arrows="1" fold="1" page="1" pageScale="1" pageWidth="827" pageHeight="1169" math="0" shadow="0">
      <root>
        <mxCell id="WIyWlLk6GJQsqaUBKTNV-0" />
        <mxCell id="WIyWlLk6GJQsqaUBKTNV-1" parent="WIyWlLk6GJQsqaUBKTNV-0" />
        <mxCell id="WIyWlLk6GJQsqaUBKTNV-2" value="" style="html=1;jettySize=auto;orthogonalLoop=1;fontSize=11;endArrow=block;endFill=0;endSize=8;strokeWidth=1;shadow=0;labelBackgroundColor=none;edgeStyle=orthogonalEdgeStyle;entryX=0.5;entryY=0;entryDx=0;entryDy=0;sketch=1;" parent="WIyWlLk6GJQsqaUBKTNV-1" target="8EUfjY7yKFjMAeGBFqy8-1" edge="1">
          <mxGeometry relative="1" as="geometry">
            <mxPoint x="220" y="120" as="sourcePoint" />
            <mxPoint x="220" y="220" as="targetPoint" />
          </mxGeometry>
        </mxCell>
        <mxCell id="WIyWlLk6GJQsqaUBKTNV-4" value="Yes" style="html=1;jettySize=auto;orthogonalLoop=1;fontSize=11;endArrow=block;endFill=0;endSize=8;strokeWidth=1;shadow=0;labelBackgroundColor=none;edgeStyle=orthogonalEdgeStyle;sketch=1;" parent="WIyWlLk6GJQsqaUBKTNV-1" source="WIyWlLk6GJQsqaUBKTNV-6" edge="1">
          <mxGeometry y="20" relative="1" as="geometry">
            <mxPoint as="offset" />
            <mxPoint x="220" y="340" as="targetPoint" />
          </mxGeometry>
        </mxCell>
        <mxCell id="WIyWlLk6GJQsqaUBKTNV-5" value="No" style="edgeStyle=orthogonalEdgeStyle;html=1;jettySize=auto;orthogonalLoop=1;fontSize=11;endArrow=block;endFill=0;endSize=8;strokeWidth=1;shadow=0;labelBackgroundColor=none;sketch=1;" parent="WIyWlLk6GJQsqaUBKTNV-1" source="WIyWlLk6GJQsqaUBKTNV-6" edge="1">
          <mxGeometry y="10" relative="1" as="geometry">
            <mxPoint as="offset" />
            <mxPoint x="320" y="260" as="targetPoint" />
          </mxGeometry>
        </mxCell>
        <mxCell id="WIyWlLk6GJQsqaUBKTNV-6" value="Is store online" style="rhombus;whiteSpace=wrap;html=1;shadow=0;fontFamily=Helvetica;fontSize=12;align=center;strokeWidth=1;spacing=6;spacingTop=-4;sketch=1;" parent="WIyWlLk6GJQsqaUBKTNV-1" vertex="1">
          <mxGeometry x="170" y="220" width="100" height="80" as="geometry" />
        </mxCell>
        <mxCell id="8EUfjY7yKFjMAeGBFqy8-0" value="Start" style="ellipse;whiteSpace=wrap;html=1;sketch=1;" vertex="1" parent="WIyWlLk6GJQsqaUBKTNV-1">
          <mxGeometry x="175" y="70" width="90" height="50" as="geometry" />
        </mxCell>
        <mxCell id="8EUfjY7yKFjMAeGBFqy8-3" style="edgeStyle=orthogonalEdgeStyle;orthogonalLoop=1;jettySize=auto;html=1;exitX=0.5;exitY=1;exitDx=0;exitDy=0;entryX=0.5;entryY=0;entryDx=0;entryDy=0;sketch=1;" edge="1" parent="WIyWlLk6GJQsqaUBKTNV-1" source="8EUfjY7yKFjMAeGBFqy8-1" target="WIyWlLk6GJQsqaUBKTNV-6">
          <mxGeometry relative="1" as="geometry" />
        </mxCell>
        <mxCell id="8EUfjY7yKFjMAeGBFqy8-1" value="User/Client Order" style="whiteSpace=wrap;html=1;sketch=1;" vertex="1" parent="WIyWlLk6GJQsqaUBKTNV-1">
          <mxGeometry x="160" y="160" width="120" height="30" as="geometry" />
        </mxCell>
        <mxCell id="8EUfjY7yKFjMAeGBFqy8-5" value="Cannot place order: &quot;store ofline&quot;" style="whiteSpace=wrap;html=1;sketch=1;" vertex="1" parent="WIyWlLk6GJQsqaUBKTNV-1">
          <mxGeometry x="320" y="245" width="110" height="30" as="geometry" />
        </mxCell>
        <mxCell id="8EUfjY7yKFjMAeGBFqy8-8" value="" style="endArrow=classic;html=1;entryX=1;entryY=0.5;entryDx=0;entryDy=0;sketch=1;" edge="1" parent="WIyWlLk6GJQsqaUBKTNV-1" target="8EUfjY7yKFjMAeGBFqy8-1">
          <mxGeometry width="50" height="50" relative="1" as="geometry">
            <mxPoint x="370" y="245" as="sourcePoint" />
            <mxPoint x="420" y="195" as="targetPoint" />
            <Array as="points">
              <mxPoint x="370" y="175" />
            </Array>
          </mxGeometry>
        </mxCell>
        <mxCell id="8EUfjY7yKFjMAeGBFqy8-9" value="Insert order to database" style="shape=parallelogram;perimeter=parallelogramPerimeter;whiteSpace=wrap;html=1;fixedSize=1;sketch=1;" vertex="1" parent="WIyWlLk6GJQsqaUBKTNV-1">
          <mxGeometry x="160" y="340" width="120" height="40" as="geometry" />
        </mxCell>
        <mxCell id="8EUfjY7yKFjMAeGBFqy8-10" value="USN send order to store" style="shape=parallelogram;perimeter=parallelogramPerimeter;whiteSpace=wrap;html=1;fixedSize=1;sketch=1;" vertex="1" parent="WIyWlLk6GJQsqaUBKTNV-1">
          <mxGeometry x="140" y="410" width="160" height="40" as="geometry" />
        </mxCell>
        <mxCell id="8EUfjY7yKFjMAeGBFqy8-12" value="" style="endArrow=none;html=1;entryX=0.5;entryY=0;entryDx=0;entryDy=0;exitX=0.5;exitY=1;exitDx=0;exitDy=0;sketch=1;" edge="1" parent="WIyWlLk6GJQsqaUBKTNV-1" source="8EUfjY7yKFjMAeGBFqy8-9" target="8EUfjY7yKFjMAeGBFqy8-10">
          <mxGeometry width="50" height="50" relative="1" as="geometry">
            <mxPoint x="60" y="330" as="sourcePoint" />
            <mxPoint x="110" y="280" as="targetPoint" />
          </mxGeometry>
        </mxCell>
        <mxCell id="8EUfjY7yKFjMAeGBFqy8-13" value="Accept?" style="rhombus;whiteSpace=wrap;html=1;sketch=1;" vertex="1" parent="WIyWlLk6GJQsqaUBKTNV-1">
          <mxGeometry x="180" y="480" width="80" height="80" as="geometry" />
        </mxCell>
        <mxCell id="8EUfjY7yKFjMAeGBFqy8-14" value="" style="endArrow=classic;html=1;entryX=0.5;entryY=0;entryDx=0;entryDy=0;exitX=0.5;exitY=1;exitDx=0;exitDy=0;sketch=1;" edge="1" parent="WIyWlLk6GJQsqaUBKTNV-1" source="8EUfjY7yKFjMAeGBFqy8-10" target="8EUfjY7yKFjMAeGBFqy8-13">
          <mxGeometry width="50" height="50" relative="1" as="geometry">
            <mxPoint x="60" y="500" as="sourcePoint" />
            <mxPoint x="110" y="450" as="targetPoint" />
          </mxGeometry>
        </mxCell>
        <mxCell id="8EUfjY7yKFjMAeGBFqy8-16" value="Cron job Find Nearest Rider" style="shape=parallelogram;perimeter=parallelogramPerimeter;whiteSpace=wrap;html=1;fixedSize=1;sketch=1;" vertex="1" parent="WIyWlLk6GJQsqaUBKTNV-1">
          <mxGeometry x="140" y="600" width="150" height="60" as="geometry" />
        </mxCell>
        <mxCell id="8EUfjY7yKFjMAeGBFqy8-17" value="" style="endArrow=classic;html=1;exitX=0.5;exitY=1;exitDx=0;exitDy=0;sketch=1;" edge="1" parent="WIyWlLk6GJQsqaUBKTNV-1" source="8EUfjY7yKFjMAeGBFqy8-13">
          <mxGeometry width="50" height="50" relative="1" as="geometry">
            <mxPoint x="210" y="600" as="sourcePoint" />
            <mxPoint x="220" y="598" as="targetPoint" />
          </mxGeometry>
        </mxCell>
        <mxCell id="8EUfjY7yKFjMAeGBFqy8-18" value="" style="endArrow=classic;html=1;sketch=1;" edge="1" parent="WIyWlLk6GJQsqaUBKTNV-1" target="8EUfjY7yKFjMAeGBFqy8-19">
          <mxGeometry width="50" height="50" relative="1" as="geometry">
            <mxPoint x="260" y="520" as="sourcePoint" />
            <mxPoint x="320" y="520" as="targetPoint" />
          </mxGeometry>
        </mxCell>
        <mxCell id="8EUfjY7yKFjMAeGBFqy8-19" value="B" style="ellipse;whiteSpace=wrap;html=1;aspect=fixed;sketch=1;" vertex="1" parent="WIyWlLk6GJQsqaUBKTNV-1">
          <mxGeometry x="290" y="505" width="30" height="30" as="geometry" />
        </mxCell>
        <mxCell id="8EUfjY7yKFjMAeGBFqy8-22" style="edgeStyle=orthogonalEdgeStyle;sketch=1;orthogonalLoop=1;jettySize=auto;html=1;entryX=0.94;entryY=0.43;entryDx=0;entryDy=0;entryPerimeter=0;" edge="1" parent="WIyWlLk6GJQsqaUBKTNV-1" source="8EUfjY7yKFjMAeGBFqy8-20" target="8EUfjY7yKFjMAeGBFqy8-16">
          <mxGeometry relative="1" as="geometry">
            <mxPoint x="360" y="640" as="targetPoint" />
            <Array as="points">
              <mxPoint x="380" y="750" />
              <mxPoint x="380" y="640" />
              <mxPoint x="281" y="640" />
            </Array>
          </mxGeometry>
        </mxCell>
        <mxCell id="8EUfjY7yKFjMAeGBFqy8-25" style="edgeStyle=orthogonalEdgeStyle;sketch=1;orthogonalLoop=1;jettySize=auto;html=1;" edge="1" parent="WIyWlLk6GJQsqaUBKTNV-1" source="8EUfjY7yKFjMAeGBFqy8-20" target="8EUfjY7yKFjMAeGBFqy8-24">
          <mxGeometry relative="1" as="geometry" />
        </mxCell>
        <mxCell id="8EUfjY7yKFjMAeGBFqy8-20" value="Rider Coordiantes" style="rhombus;whiteSpace=wrap;html=1;sketch=1;" vertex="1" parent="WIyWlLk6GJQsqaUBKTNV-1">
          <mxGeometry x="157.5" y="700" width="115" height="100" as="geometry" />
        </mxCell>
        <mxCell id="8EUfjY7yKFjMAeGBFqy8-21" value="" style="endArrow=classic;html=1;entryX=0.5;entryY=0;entryDx=0;entryDy=0;sketch=1;" edge="1" parent="WIyWlLk6GJQsqaUBKTNV-1" source="8EUfjY7yKFjMAeGBFqy8-16" target="8EUfjY7yKFjMAeGBFqy8-20">
          <mxGeometry width="50" height="50" relative="1" as="geometry">
            <mxPoint x="215" y="710" as="sourcePoint" />
            <mxPoint x="215" y="730.7106781186548" as="targetPoint" />
          </mxGeometry>
        </mxCell>
        <mxCell id="8EUfjY7yKFjMAeGBFqy8-24" value="&lt;font style=&quot;font-size: 8px&quot;&gt;Insert to table queuing&amp;nbsp;&lt;/font&gt;" style="whiteSpace=wrap;html=1;sketch=1;" vertex="1" parent="WIyWlLk6GJQsqaUBKTNV-1">
          <mxGeometry x="155" y="830" width="120" height="30" as="geometry" />
        </mxCell>
        <mxCell id="8EUfjY7yKFjMAeGBFqy8-39" style="edgeStyle=orthogonalEdgeStyle;sketch=1;orthogonalLoop=1;jettySize=auto;html=1;entryX=1;entryY=0.5;entryDx=0;entryDy=0;" edge="1" parent="WIyWlLk6GJQsqaUBKTNV-1" source="8EUfjY7yKFjMAeGBFqy8-26" target="8EUfjY7yKFjMAeGBFqy8-24">
          <mxGeometry relative="1" as="geometry">
            <mxPoint x="390" y="900" as="targetPoint" />
            <Array as="points">
              <mxPoint x="390" y="1020" />
              <mxPoint x="390" y="845" />
            </Array>
          </mxGeometry>
        </mxCell>
        <mxCell id="8EUfjY7yKFjMAeGBFqy8-41" style="edgeStyle=orthogonalEdgeStyle;rounded=0;sketch=1;orthogonalLoop=1;jettySize=auto;html=1;entryX=0.5;entryY=0;entryDx=0;entryDy=0;" edge="1" parent="WIyWlLk6GJQsqaUBKTNV-1" source="8EUfjY7yKFjMAeGBFqy8-26" target="8EUfjY7yKFjMAeGBFqy8-32">
          <mxGeometry relative="1" as="geometry" />
        </mxCell>
        <mxCell id="8EUfjY7yKFjMAeGBFqy8-26" value="&lt;font style=&quot;font-size: 9px&quot;&gt;Rider accpet&lt;/font&gt;" style="rhombus;whiteSpace=wrap;html=1;sketch=1;" vertex="1" parent="WIyWlLk6GJQsqaUBKTNV-1">
          <mxGeometry x="175" y="960" width="80" height="80" as="geometry" />
        </mxCell>
        <mxCell id="8EUfjY7yKFjMAeGBFqy8-29" value="" style="endArrow=classic;html=1;exitX=0.5;exitY=1;exitDx=0;exitDy=0;entryX=0.5;entryY=0;entryDx=0;entryDy=0;" edge="1" parent="WIyWlLk6GJQsqaUBKTNV-1" source="8EUfjY7yKFjMAeGBFqy8-24" target="8EUfjY7yKFjMAeGBFqy8-37">
          <mxGeometry width="50" height="50" relative="1" as="geometry">
            <mxPoint x="200" y="910" as="sourcePoint" />
            <mxPoint x="250" y="860" as="targetPoint" />
          </mxGeometry>
        </mxCell>
        <mxCell id="8EUfjY7yKFjMAeGBFqy8-43" style="edgeStyle=orthogonalEdgeStyle;rounded=0;sketch=1;orthogonalLoop=1;jettySize=auto;html=1;" edge="1" parent="WIyWlLk6GJQsqaUBKTNV-1" source="8EUfjY7yKFjMAeGBFqy8-32" target="8EUfjY7yKFjMAeGBFqy8-44">
          <mxGeometry relative="1" as="geometry">
            <mxPoint x="215" y="1130" as="targetPoint" />
          </mxGeometry>
        </mxCell>
        <mxCell id="8EUfjY7yKFjMAeGBFqy8-32" value="&lt;font style=&quot;font-size: 8px&quot;&gt;Update table assign to accepted&lt;/font&gt;" style="whiteSpace=wrap;html=1;sketch=1;" vertex="1" parent="WIyWlLk6GJQsqaUBKTNV-1">
          <mxGeometry x="155" y="1070" width="120" height="30" as="geometry" />
        </mxCell>
        <mxCell id="8EUfjY7yKFjMAeGBFqy8-35" style="edgeStyle=orthogonalEdgeStyle;sketch=1;orthogonalLoop=1;jettySize=auto;html=1;" edge="1" parent="WIyWlLk6GJQsqaUBKTNV-1" source="8EUfjY7yKFjMAeGBFqy8-34">
          <mxGeometry relative="1" as="geometry">
            <mxPoint x="655" y="80" as="targetPoint" />
          </mxGeometry>
        </mxCell>
        <mxCell id="8EUfjY7yKFjMAeGBFqy8-34" value="B" style="ellipse;whiteSpace=wrap;html=1;aspect=fixed;sketch=1;" vertex="1" parent="WIyWlLk6GJQsqaUBKTNV-1">
          <mxGeometry x="640" y="20" width="30" height="30" as="geometry" />
        </mxCell>
        <mxCell id="8EUfjY7yKFjMAeGBFqy8-36" value="END" style="ellipse;whiteSpace=wrap;html=1;sketch=1;" vertex="1" parent="WIyWlLk6GJQsqaUBKTNV-1">
          <mxGeometry x="625" y="80" width="60" height="30" as="geometry" />
        </mxCell>
        <mxCell id="8EUfjY7yKFjMAeGBFqy8-38" style="edgeStyle=orthogonalEdgeStyle;sketch=1;orthogonalLoop=1;jettySize=auto;html=1;" edge="1" parent="WIyWlLk6GJQsqaUBKTNV-1" source="8EUfjY7yKFjMAeGBFqy8-37" target="8EUfjY7yKFjMAeGBFqy8-26">
          <mxGeometry relative="1" as="geometry" />
        </mxCell>
        <mxCell id="8EUfjY7yKFjMAeGBFqy8-37" value="&lt;font style=&quot;font-size: 8px&quot;&gt;Insert to table assign&lt;/font&gt;" style="whiteSpace=wrap;html=1;sketch=1;" vertex="1" parent="WIyWlLk6GJQsqaUBKTNV-1">
          <mxGeometry x="155" y="890" width="120" height="30" as="geometry" />
        </mxCell>
        <mxCell id="8EUfjY7yKFjMAeGBFqy8-40" value="Remove rider from assign table" style="shape=parallelogram;perimeter=parallelogramPerimeter;whiteSpace=wrap;html=1;fixedSize=1;sketch=1;" vertex="1" parent="WIyWlLk6GJQsqaUBKTNV-1">
          <mxGeometry x="330" y="930" width="130" height="60" as="geometry" />
        </mxCell>
        <mxCell id="8EUfjY7yKFjMAeGBFqy8-44" value="A" style="ellipse;whiteSpace=wrap;html=1;aspect=fixed;" vertex="1" parent="WIyWlLk6GJQsqaUBKTNV-1">
          <mxGeometry x="200" y="1130" width="30" height="30" as="geometry" />
        </mxCell>
        <mxCell id="8EUfjY7yKFjMAeGBFqy8-46" style="edgeStyle=orthogonalEdgeStyle;rounded=0;sketch=1;orthogonalLoop=1;jettySize=auto;html=1;" edge="1" parent="WIyWlLk6GJQsqaUBKTNV-1" source="8EUfjY7yKFjMAeGBFqy8-45">
          <mxGeometry relative="1" as="geometry">
            <mxPoint x="595" y="220" as="targetPoint" />
          </mxGeometry>
        </mxCell>
        <mxCell id="8EUfjY7yKFjMAeGBFqy8-45" value="A" style="ellipse;whiteSpace=wrap;html=1;aspect=fixed;" vertex="1" parent="WIyWlLk6GJQsqaUBKTNV-1">
          <mxGeometry x="580" y="150" width="30" height="30" as="geometry" />
        </mxCell>
        <mxCell id="8EUfjY7yKFjMAeGBFqy8-48" style="edgeStyle=orthogonalEdgeStyle;rounded=0;sketch=1;orthogonalLoop=1;jettySize=auto;html=1;" edge="1" parent="WIyWlLk6GJQsqaUBKTNV-1" source="8EUfjY7yKFjMAeGBFqy8-47">
          <mxGeometry relative="1" as="geometry">
            <mxPoint x="595" y="280" as="targetPoint" />
          </mxGeometry>
        </mxCell>
        <mxCell id="8EUfjY7yKFjMAeGBFqy8-47" value="USN send status of order to user" style="shape=parallelogram;perimeter=parallelogramPerimeter;whiteSpace=wrap;html=1;fixedSize=1;sketch=1;" vertex="1" parent="WIyWlLk6GJQsqaUBKTNV-1">
          <mxGeometry x="475" y="220" width="240" height="30" as="geometry" />
        </mxCell>
        <mxCell id="8EUfjY7yKFjMAeGBFqy8-49" value="B" style="ellipse;whiteSpace=wrap;html=1;aspect=fixed;sketch=1;" vertex="1" parent="WIyWlLk6GJQsqaUBKTNV-1">
          <mxGeometry x="580" y="280" width="30" height="30" as="geometry" />
        </mxCell>
      </root>
    </mxGraphModel>
  </diagram>
</mxfile>
